# xmcd
#
# Track frame offsets:
#	150
#	31044
#	64954
#	79556
#	101996
#	138850
#	158080
#	193383
#	206261
#	230022
#	292667
#
# Disc length: 4333
#
# Revision: 1
# Processed by: cddbd v1.5.1PL0 Copyright (c) Steve Scherf et al.
# Submitted via: CDex 1.50Beta7
# Normalized: r0:DSETVAR1,TDELIM( - )
#
DISCID=9110eb0b
DTITLE=Various Artist - Great Movements in Jazz 2
DYEAR=1999
DGENRE=Jazz
TTITLE0=Chet Baker - Alone Together
TTITLE1=Eddie Henderson - If One Only Could See
TTITLE2=Kenny Burrnell and John Coltrane - Why Was I Born
TTITLE3=Lee Morgan - A Waltz for Fran
TTITLE4=Bill Evans - On Green Dolphine Street
TTITLE5=Gene - Ammons - My Romance
TTITLE6=Sonny Criss - Black Cofee
TTITLE7=Dizzy Gillespie - September Song
TTITLE8=Kenny Dorham - Old Folks
TTITLE9=John Coltrane - Lush Life
TTITLE10=Miles Davis - Four
EXTD=YEAR: 1999
EXTT0=
EXTT1=
EXTT2=
EXTT3=
EXTT4=
EXTT5=
EXTT6=
EXTT7=
EXTT8=
EXTT9=
EXTT10=
PLAYORDER=
